<svg width="24" height="25" viewBox="0 0 24 25" fill="none" xmlns="http://www.w3.org/2000/svg">
<path d="M1.33455 0.5H22.6679C23.4043 0.5 24.0012 1.09696 24.0012 1.83333V23.1667C24.0012 23.9031 23.4043 24.5 22.6679 24.5H1.33455C0.598167 24.5 0.0012207 23.9031 0.0012207 23.1667V1.83333C0.0012207 1.09696 0.598167 0.5 1.33455 0.5ZM2.66789 3.16667V21.8333H21.3346V3.16667H2.66789ZM6.00122 8.5C4.89665 8.5 4.00122 7.60457 4.00122 6.5C4.00122 5.39543 4.89665 4.5 6.00122 4.5C7.10578 4.5 8.00122 5.39543 8.00122 6.5C8.00122 7.60457 7.10578 8.5 6.00122 8.5ZM4.66789 9.83333H7.33455V19.8333H4.66789V9.83333ZM12.0012 10.406C12.7804 9.65379 13.6886 9.16667 14.6679 9.16667C17.4292 9.16667 19.3346 11.4052 19.3346 14.1667V19.8333H16.6679V14.1667C16.6679 12.878 15.6232 11.8333 14.3346 11.8333C13.0459 11.8333 12.0012 12.878 12.0012 14.1667V19.8333H9.33458V9.83333H12.0012V10.406Z" fill="white"/>
</svg>
